<?xml version="1.0" standalone="yes"?>

<svg version="1.1" viewBox="0.0 0.0 800.0 600.0" fill="none" stroke="none" stroke-linecap="square" stroke-miterlimit="10" xmlns="http://www.w3.org/2000/svg" xmlns:xlink="http://www.w3.org/1999/xlink"><clipPath id="p.0"><path d="m0 0l800.0 0l0 600.0l-800.0 0l0 -600.0z" clip-rule="nonzero"></path></clipPath><g clip-path="url(#p.0)"><path fill="#000000" fill-opacity="0.0" d="m0 0l800.0 0l0 600.0l-800.0 0z" fill-rule="nonzero"></path><path fill="#000000" fill-opacity="0.0" d="m308.74014 180.30016l59.57721 148.69829l62.112396 0l58.3096 -151.0037" fill-rule="nonzero"></path><path stroke="#000000" stroke-width="4.0" stroke-linejoin="round" stroke-linecap="butt" d="m308.74014 180.30016l59.57721 148.69829l62.112396 0l58.3096 -151.0037" fill-rule="nonzero"></path><path fill="#000000" fill-opacity="0.0" d="m258.25198 177.99475l41.984222 0l0 34.992126l-41.984222 0z" fill-rule="nonzero"></path><path fill="#000000" d="m271.79913 206.23894l0 -17.421875l4.609375 0l0 2.046875l-2.140625 0l0 13.328125l2.140625 0l0 2.046875l-4.609375 0zm6.212677 -15.015625l0 -2.40625l2.609375 0l0 2.40625l-2.609375 0zm0 11.1875l0 -9.859375l2.609375 0l0 9.859375l-2.609375 0zm8.792694 -13.59375l0 17.421875l-4.609375 0l0 -2.046875l2.140625 0l0 -13.34375l-2.140625 0l0 -2.03125l4.609375 0z" fill-rule="nonzero"></path><path fill="#000000" fill-opacity="0.0" d="m266.75592 208.98688l41.984222 0l0 34.992126l-41.984222 0z" fill-rule="nonzero"></path><path fill="#000000" d="m279.1143 237.23106l0 -17.421875l4.609375 0l0 2.046875l-2.140625 0l0 13.328125l2.140625 0l0 2.046875l-4.609375 0zm11.915802 -3.828125l-6.4375 0l0 -2.109375l1.921875 0l0 -5.640625l-1.921875 0l0 -2.109375l6.4375 0l0 2.109375l-1.90625 0l0 5.640625l1.90625 0l0 2.109375zm5.4671326 -13.59375l0 17.421875l-4.609375 0l0 -2.046875l2.140625 0l0 -13.34375l-2.140625 0l0 -2.03125l4.609375 0z" fill-rule="nonzero"></path><path fill="#000000" fill-opacity="0.0" d="m268.74014 236.8727l53.007874 0l0 34.99214l-53.007874 0z" fill-rule="nonzero"></path><path fill="#000000" d="m285.20294 265.11688l0 -17.421875l4.609375 0l0 2.046875l-2.140625 0l0 13.328125l2.140625 0l0 2.046875l-4.609375 0zm11.915802 -6.96875l2.609375 0.4375q-0.5 1.4375 -1.59375 2.1875q-1.078125 0.734375 -2.703125 0.734375q-2.5625 0 -3.796875 -1.671875q-0.96875 -1.34375 -0.96875 -3.40625q0 -2.4375 1.265625 -3.828125q1.28125 -1.390625 3.25 -1.390625q2.1875 0 3.453125 1.453125q1.28125 1.453125 1.234375 4.453125l-6.53125 0q0.015625 1.15625 0.625 1.8125q0.609375 0.640625 1.5 0.640625q0.609375 0 1.03125 -0.328125q0.421875 -0.34375 0.625 -1.09375zm0.15625 -2.625q-0.03125 -1.140625 -0.59375 -1.71875q-0.546875 -0.59375 -1.34375 -0.59375q-0.859375 0 -1.40625 0.625q-0.5625 0.609375 -0.546875 1.6875l3.890625 0zm8.125702 -7.828125l0 17.421875l-4.609375 0l0 -2.046875l2.140625 0l0 -13.34375l-2.140625 0l0 -2.03125l4.609375 0z" fill-rule="nonzero"></path><path fill="#000000" fill-opacity="0.0" d="m290.25198 265.01312l41.984222 0l0 34.992126l-41.984222 0z" fill-rule="nonzero"></path><path fill="#000000" d="m301.75406 293.25732l0 -17.421875l4.609375 0l0 2.046875l-2.140625 0l0 13.328125l2.140625 0l0 2.046875l-4.609375 0zm14.072052 -6.359375q-0.78125 2.75 -4.3125 2.75q-1.578125 0 -2.71875 -0.59375q-1.453125 -0.765625 -1.453125 -2.21875q0 -1.796875 2.171875 -2.390625q-1.75 -0.84375 -1.75 -2.21875q0 -1.4375 1.203125 -2.21875q1.015625 -0.65625 2.546875 -0.65625q1.40625 0 2.4375 0.609375q1.140625 0.6875 1.484375 1.984375l-2.21875 0.484375q-0.265625 -0.6875 -0.59375 -0.953125q-0.390625 -0.328125 -1.078125 -0.328125q-0.5625 0 -0.953125 0.34375q-0.390625 0.34375 -0.390625 0.90625q0 0.375 0.25 0.734375q0.25 0.359375 0.59375 0.46875q0.328125 0.078125 0.984375 0.078125l0 1.703125l-0.4375 0q-0.671875 0 -1.125 0.28125q-0.53125 0.328125 -0.53125 0.953125q0 0.546875 0.515625 0.921875q0.46875 0.328125 1.09375 0.328125q1.328125 0 1.90625 -1.453125l2.375 0.484375zm5.023468 -11.0625l0 17.421875l-4.609375 0l0 -2.046875l2.140625 0l0 -13.34375l-2.140625 0l0 -2.03125l4.609375 0z" fill-rule="nonzero"></path><path fill="#000000" fill-opacity="0.0" d="m300.2362 295.75067l53.007874 0l0 26.992096l-53.007874 0z" fill-rule="nonzero"></path><path fill="#000000" d="m313.59265 319.99484l0 -17.421875l4.609375 0l0 2.046875l-2.140625 0l0 13.328125l2.140625 0l0 2.046875l-4.609375 0zm18.181427 -6.96875l2.546875 0.453125q-0.53125 1.453125 -1.609375 2.1875q-1.078125 0.71875 -2.75 0.71875q-1.03125 0 -1.921875 -0.328125q-0.875 -0.34375 -1.59375 -1.015625q-0.65625 0.5625 -1.703125 0.953125q-1.03125 0.390625 -2.140625 0.390625q-1.578125 0 -2.46875 -0.8125q-0.875 -0.828125 -0.875 -2.078125q0 -0.75 0.3125 -1.328125q0.3125 -0.59375 0.75 -0.921875q0.4375 -0.328125 1.234375 -0.578125q0.375 -0.109375 2.203125 -0.5q0.921875 -0.1875 1.578125 -0.40625l0 -0.25q0 -0.71875 -0.390625 -1.0625q-0.390625 -0.359375 -1.234375 -0.359375q-0.75 0 -1.1875 0.296875q-0.4375 0.296875 -0.625 0.9375l-2.359375 -0.453125q0.46875 -1.4375 1.453125 -2.109375q1.0 -0.671875 3.046875 -0.671875q0.96875 0 1.71875 0.234375q0.765625 0.21875 1.296875 0.671875q0.5625 -0.453125 1.234375 -0.671875q0.671875 -0.234375 1.453125 -0.234375q1.484375 0 2.5 0.625q1.03125 0.625 1.609375 1.84375q0.59375 1.21875 0.59375 3.453125l-6.5625 0q0.171875 1.265625 0.71875 1.828125q0.546875 0.5625 1.34375 0.5625q0.65625 0 1.109375 -0.328125q0.46875 -0.34375 0.71875 -1.046875zm0.09375 -2.65625q-0.046875 -0.8125 -0.21875 -1.171875q-0.234375 -0.515625 -0.703125 -0.8125q-0.46875 -0.296875 -1.09375 -0.296875q-0.546875 0 -0.96875 0.25q-0.40625 0.25 -0.65625 0.765625q-0.3125 0.671875 -0.296875 1.265625l3.9375 0zm-6.5625 1.078125q-2.140625 0.578125 -2.328125 0.640625q-0.609375 0.203125 -0.859375 0.5q-0.25 0.28125 -0.25 0.671875q0 0.53125 0.40625 0.921875q0.40625 0.375 1.046875 0.375q0.6875 0 1.296875 -0.4375q0.4375 -0.328125 0.5625 -0.8125q0.125 -0.484375 0.125 -1.859375zm14.697784 -8.875l0 17.421875l-4.609375 0l0 -2.046875l2.140625 0l0 -13.34375l-2.140625 0l0 -2.03125l4.609375 0z" fill-rule="nonzero"></path><path fill="#000000" fill-opacity="0.0" d="m372.2362 329.99738l53.007874 0l0 26.992126l-53.007874 0z" fill-rule="nonzero"></path><path fill="#000000" d="m388.18887 354.24155l0 -17.421875l4.609375 0l0 2.046875l-2.140625 0l0 13.328125l2.140625 0l0 2.046875l-4.609375 0zm15.259552 -3.828125l-2.421875 0l0 -1.453125q-1.203125 1.671875 -3.078125 1.671875q-2.0 0 -3.140625 -1.65625q-0.984375 -1.453125 -0.984375 -3.53125q0 -2.171875 0.96875 -3.53125q1.09375 -1.578125 3.1875 -1.578125q1.65625 0 2.859375 1.375l0 -1.15625l2.609375 0l0 9.859375zm-2.609375 -4.890625q0 -3.1875 -2.171875 -3.1875q-1.125 0 -1.703125 0.953125q-0.484375 0.78125 -0.484375 1.984375q0 1.578125 0.4375 2.28125q0.640625 1.015625 1.765625 1.015625q1.125 0 1.703125 -1.015625q0.453125 -0.828125 0.453125 -2.03125zm8.567841 -8.703125l0 17.421875l-4.609375 0l0 -2.046875l2.140625 0l0 -13.34375l-2.140625 0l0 -2.03125l4.609375 0z" fill-rule="nonzero"></path><path fill="#000000" fill-opacity="0.0" d="m449.23883 295.75067l53.007874 0l0 26.992096l-53.007874 0z" fill-rule="nonzero"></path><path fill="#000000" d="m465.1915 319.99484l0 -17.421875l4.609375 0l0 2.046875l-2.140625 0l0 13.328125l2.140625 0l0 2.046875l-4.609375 0zm5.618927 -8.890625q0 -1.296875 0.640625 -2.515625q0.640625 -1.21875 1.8125 -1.859375q1.171875 -0.640625 2.609375 -0.640625q2.25 0 3.671875 1.453125q1.421875 1.453125 1.421875 3.671875q0 2.234375 -1.4375 3.703125q-1.4375 1.46875 -3.625 1.46875q-1.359375 0 -2.59375 -0.609375q-1.21875 -0.609375 -1.859375 -1.796875q-0.640625 -1.1875 -0.640625 -2.875zm2.671875 0.140625q0 1.46875 0.6875 2.25q0.703125 0.765625 1.71875 0.765625q1.015625 0 1.703125 -0.765625q0.703125 -0.78125 0.703125 -2.265625q0 -1.453125 -0.703125 -2.234375q-0.6875 -0.78125 -1.703125 -0.78125q-1.015625 0 -1.71875 0.78125q-0.6875 0.78125 -0.6875 2.25zm12.927216 -8.671875l0 17.421875l-4.609375 0l0 -2.046875l2.140625 0l0 -13.34375l-2.140625 0l0 -2.03125l4.609375 0z" fill-rule="nonzero"></path><path fill="#000000" fill-opacity="0.0" d="m464.74014 261.0118l53.007904 0l0 26.992126l-53.007904 0z" fill-rule="nonzero"></path><path fill="#000000" d="m481.20294 285.256l0 -17.421875l4.609375 0l0 2.046875l-2.140625 0l0 13.328125l2.140625 0l0 2.046875l-4.609375 0zm14.634552 -8.75q0 2.3125 -1.203125 3.6875q-1.265625 1.453125 -3.53125 1.453125q-3.75 0 -4.5625 -3.5625l2.5625 -0.4375q0.34375 1.875 1.875 1.875q2.171875 0 2.171875 -3.203125q0 -2.921875 -2.125 -2.921875q-1.53125 0 -1.78125 1.5625l-2.578125 -0.46875q0.921875 -3.140625 4.390625 -3.140625q2.3125 0 3.578125 1.453125q1.203125 1.359375 1.203125 3.703125zm5.563202 -8.671875l0 17.421875l-4.609375 0l0 -2.046875l2.140625 0l0 -13.34375l-2.140625 0l0 -2.03125l4.609375 0z" fill-rule="nonzero"></path><path fill="#000000" fill-opacity="0.0" d="m478.74014 222.51837l53.007904 0l0 26.992126l-53.007904 0z" fill-rule="nonzero"></path><path fill="#000000" d="m494.59714 246.76256l0 -17.421875l4.609375 0l0 2.046875l-2.140625 0l0 13.328125l2.140625 0l0 2.046875l-4.609375 0zm15.962677 -11.578125l-0.671875 0q-0.609375 0 -0.609375 0.4375q0 0.109375 0.5625 1.171875q0.578125 1.0625 0.578125 2.09375q0 2.0625 -1.53125 3.21875q-1.390625 1.046875 -3.546875 1.046875q-2.140625 0 -3.53125 -1.046875q-1.53125 -1.15625 -1.53125 -3.21875q0 -1.03125 0.5625 -2.09375q0.578125 -1.0625 0.578125 -1.171875q0 -0.4375 -0.609375 -0.4375l-0.65625 0l0 -2.09375l1.71875 0q0.828125 0 1.421875 0.546875q0.59375 0.53125 0.59375 1.390625q0 0.59375 -0.5 1.5625q-0.484375 0.96875 -0.484375 1.71875q0 1.171875 0.625 1.921875q0.65625 0.796875 1.828125 0.796875q1.171875 0 1.828125 -0.796875q0.609375 -0.75 0.609375 -1.921875q0 -0.75 -0.5 -1.71875q-0.484375 -0.96875 -0.484375 -1.5625q0 -0.859375 0.609375 -1.40625q0.578125 -0.53125 1.40625 -0.53125l1.734375 0l0 2.09375zm5.4466553 -5.84375l0 17.421875l-4.609375 0l0 -2.046875l2.140625 0l0 -13.34375l-2.140625 0l0 -2.03125l4.609375 0z" fill-rule="nonzero"></path><path fill="#000000" fill-opacity="0.0" d="m488.74014 181.99475l53.007904 0l0 26.992126l-53.007904 0z" fill-rule="nonzero"></path><path fill="#000000" d="m504.6928 206.23894l0 -17.421875l4.609375 0l0 2.046875l-2.140625 0l0 13.328125l2.140625 0l0 2.046875l-4.609375 0zm12.6970215 -3.828125l0 -1.46875q-0.53125 0.78125 -1.40625 1.234375q-0.875 0.453125 -1.859375 0.453125q-0.984375 0 -1.78125 -0.4375q-0.7812195 -0.4375 -1.1405945 -1.21875q-0.34375 -0.796875 -0.34375 -2.1875l0 -6.234375l2.6093445 0l0 4.53125q0 2.078125 0.140625 2.546875q0.140625 0.46875 0.515625 0.75q0.390625 0.265625 0.96875 0.265625q0.671875 0 1.203125 -0.359375q0.53125 -0.375 0.71875 -0.90625q0.1875 -0.546875 0.1875 -2.671875l0 -4.15625l2.609375 0l0 9.859375l-2.421875 0zm8.520996 -13.59375l0 17.421875l-4.609375 0l0 -2.046875l2.140625 0l0 -13.34375l-2.140625 0l0 -2.03125l4.609375 0z" fill-rule="nonzero"></path><path fill="#000000" fill-opacity="0.0" d="m371.98425 295.75067l53.007874 0l0 26.992096l-53.007874 0z" fill-rule="nonzero"></path><path fill="#000000" d="m388.44702 319.99484l0 -17.421875l4.609375 0l0 2.046875l-2.140625 0l0 13.328125l2.140625 0l0 2.046875l-4.609375 0zm15.259552 -3.828125l-2.6875 0l-1.875 -5.03125q-0.140625 -0.390625 -0.28125 -0.828125q-0.09375 -0.359375 -0.265625 -0.84375l-0.53125 1.671875l-1.859375 5.03125l-2.734375 0l3.96875 -9.859375l2.34375 0l3.921875 9.859375zm4.9382324 -13.59375l0 17.421875l-4.609375 0l0 -2.046875l2.140625 0l0 -13.34375l-2.140625 0l0 -2.03125l4.609375 0z" fill-rule="nonzero"></path><path fill="#000000" fill-opacity="0.0" d="m371.98294 261.01312l53.007874 0l0 26.992126l-53.007874 0z" fill-rule="nonzero"></path><path fill="#000000" d="m388.4457 285.25732l0 -17.421875l4.609375 0l0 2.046875l-2.140625 0l0 13.328125l2.140625 0l0 2.046875l-4.609375 0zm14.806427 -8.828125q0 2.21875 -1.125 3.65625q-1.234375 1.5625 -3.390625 1.5625q-2.5 0 -3.703125 -1.765625q-1.03125 -1.515625 -0.984375 -4.125l6.53125 0q-0.03125 -1.046875 -0.546875 -1.71875q-0.578125 -0.734375 -1.578125 -0.734375q-1.265625 0 -1.671875 1.40625l-2.59375 -0.4375q1.015625 -2.921875 4.28125 -2.921875q2.578125 0 3.8125 1.6875q0.96875 1.328125 0.96875 3.390625zm-2.71875 0.921875l-3.890625 0q0.03125 0.953125 0.484375 1.59375q0.515625 0.71875 1.453125 0.71875q0.9375 0 1.46875 -0.71875q0.5 -0.625 0.484375 -1.59375zm8.110107 -9.515625l0 17.421875l-4.609375 0l0 -2.046875l2.140625 0l0 -13.34375l-2.140625 0l0 -2.03125l4.609375 0z" fill-rule="nonzero"></path><path fill="#000000" fill-opacity="0.0" d="m373.74014 222.51968l53.007874 0l0 26.992126l-53.007874 0z" fill-rule="nonzero"></path><path fill="#000000" d="m388.09863 246.76387l0 -17.421875l4.609375 0l0 2.046875l-2.140625 0l0 13.328125l2.140625 0l0 2.046875l-4.609375 0zm19.712677 -7.859375q-1.1875 0.59375 -2.453125 0.59375q-2.046875 0 -2.453125 -2.0q0 0.171875 0 0.4375q0 2.234375 -1.125 3.65625q-1.21875 1.5625 -3.390625 1.5625q-2.515625 0 -3.71875 -1.765625q-1.015625 -1.515625 -0.96875 -4.125l6.28125 -1.171875q-0.484375 -1.28125 -1.875 -1.28125q-1.265625 0 -1.671875 1.40625l-2.59375 -0.4375q1.015625 -2.921875 4.28125 -2.921875q3.34375 0 4.390625 2.765625l1.703125 -0.3125l0.21875 1.234375q0.203125 1.15625 1.203125 1.15625q0.796875 0 1.84375 -0.625l0.328125 1.828125zm-7.5625 -1.078125l-3.953125 0.703125q0 2.640625 1.9375 2.640625q1.171875 0 1.640625 -0.984375q0.375 -0.78125 0.375 -2.359375zm12.256195 -8.484375l0 17.421875l-4.609375 0l0 -2.046875l2.140625 0l0 -13.34375l-2.140625 0l0 -2.03125l4.609375 0z" fill-rule="nonzero"></path><path fill="#000000" fill-opacity="0.0" d="m372.2362 181.99475l53.007874 0l0 26.992126l-53.007874 0z" fill-rule="nonzero"></path><path fill="#000000" d="m387.4419 206.23894l0 -17.421875l4.609375 0l0 2.046875l-2.140625 0l0 13.328125l2.140625 0l0 2.046875l-4.609375 0zm17.978302 -9.15625q-1.1875 0.59375 -2.453125 0.59375q-2.015625 0 -2.4375 -1.953125q-0.234375 0.984375 -1.703125 1.703125q2.1875 0.59375 2.1875 2.390625q0 1.453125 -1.453125 2.21875q-1.140625 0.59375 -2.734375 0.59375q-3.515625 0 -4.3125 -2.75l2.390625 -0.484375q0.578125 1.453125 1.90625 1.453125q0.625 0 1.09375 -0.328125q0.515625 -0.359375 0.515625 -0.921875q0 -0.625 -0.546875 -0.953125q-0.453125 -0.28125 -1.109375 -0.28125l-0.453125 0l0 -1.703125q1.84375 0 1.84375 -1.28125q0 -0.5625 -0.390625 -0.90625q-0.390625 -0.34375 -0.96875 -0.34375q-0.671875 0 -1.0625 0.328125q-0.34375 0.265625 -0.609375 0.953125l-2.203125 -0.484375q0.328125 -1.296875 1.46875 -1.984375q1.03125 -0.609375 2.453125 -0.609375q2.421875 0 3.34375 1.453125l1.65625 -0.296875l0.21875 1.234375q0.1875 1.140625 1.203125 1.140625q0.796875 0 1.828125 -0.609375l0.328125 1.828125zm4.733673 -8.265625l0 17.421875l-4.609375 0l0 -2.046875l2.140625 0l0 -13.34375l-2.140625 0l0 -2.03125l4.609375 0z" fill-rule="nonzero"></path></g></svg>

